# xmcd
#
# Track frame offsets: 
#        150
#        14132
#        28030
#        42737
#        57805
#        71365
#        84407
#        106835
#        121560
#        133357
#        145705
#        158115
#        178570
#        203922
#        224882
#        247872
#
# Disc length: 3574 seconds
#
# Revision: 3
# Processed by: cddbd v1.5.2PL0 Copyright (c) Steve Scherf et al.
# Submitted via: ExactAudioCopy v0.99pb5
#
DISCID=e50df410
DTITLE=Denussy, Claude - Piano Music by Claude Debussy 3
DYEAR=1991
DGENRE=Classical
TTITLE0=Préludes Book 2 - Brouillards
TTITLE1=Préludes Book 2 - Feuilles mortes
TTITLE2=Préludes Book 2 - La Puerta del Vino
TTITLE3=Préludes Book 2 - Les fées sont d'exquises danseuses
TTITLE4=Préludes Book 2 - Bruyères
TTITLE5=Préludes Book 2 - Général Lavine - eccentric
TTITLE6=Préludes Book 2 - La terrasse des audiences du clair de lune
TTITLE7=Préludes Book 2 - Ondine
TTITLE8=Préludes Book 2 - Hommage à S Pickwick Esq PPMPC
TTITLE9=Préludes Book 2 - Canope
TTITLE10=Préludes Book 2 - Les tierces alternées
TTITLE11=Préludes Book 2 - Feux d'artifice
TTITLE12=Masques
TTITLE13=Images Set 2 - Cloches à travers les fueilles
TTITLE14=Images Set 2 - Et le lune descend sur le temple qui fut
TTITLE15=Images Set 2 - Poissons d'or
EXTD=
EXTT0=Preludes - Book 2\n
EXTT1=Preludes - Book 2\n
EXTT2=Preludes - Book 2\n
EXTT3=Preludes - Book 2\n
EXTT4=Preludes - Book 2\n
EXTT5=Preludes - Book 2\n
EXTT6=Preludes - Book 2\n
EXTT7=Preludes - Book 2\n
EXTT8=Preludes - Book 2\n
EXTT9=Preludes - Book 2\n
EXTT10=Preludes - Book 2\n
EXTT11=Preludes - Book 2\n
EXTT12=
EXTT13=Images - Set 2\n
EXTT14=Images - Set 2\n
EXTT15=Images - Set 2\n
PLAYORDER=
